<svg xmlns="http://www.w3.org/2000/svg" width="1113" height="170" viewBox="0 0 1113 170" role="img" aria-label="Peixotto — Engenheiro de Produção · AI Engineer">
  <defs>
    

    <clipPath id="frame"><rect width="1113" height="170"></rect></clipPath>

    <pattern id="hexes" width="136" height="118" patternUnits="userSpaceOnUse" patternTransform="rotate(-10) translate(-20 -14)">
      <path d="M34 0 L68 17 L68 51 L34 68 L0 51 L0 17 Z" fill="#f4f2ec"></path>
      <path d="M102 59 L136 76 L136 110 L102 127 L68 110 L68 76 Z" fill="#f4f2ec"></path>
    </pattern>

    <linearGradient id="scrim" x1="1113" y1="0" x2="0" y2="0" gradientUnits="userSpaceOnUse">
      <stop offset="0.30" stop-color="#0d0d0d" stop-opacity="1"></stop>
      <stop offset="0.62" stop-color="#0d0d0d" stop-opacity="0.55"></stop>
      <stop offset="0.88" stop-color="#0d0d0d" stop-opacity="0"></stop>
    </linearGradient>

    <linearGradient id="rule" x1="1113" y1="0" x2="0" y2="0" gradientUnits="userSpaceOnUse">
      <stop offset="0" stop-color="#f4f2ec" stop-opacity="1"></stop>
      <stop offset="0.45" stop-color="#f4f2ec" stop-opacity="0.25"></stop>
      <stop offset="1" stop-color="#f4f2ec" stop-opacity="0"></stop>
    </linearGradient>
  </defs>

  <g clip-path="url(#frame)">
    <rect width="1113" height="170" fill="#0d0d0d"></rect>
    <rect width="1113" height="170" fill="url(#hexes)" opacity="0.12"></rect>

    <path d="M100 -110 L270 -18 L270 166 L100 258 L-70 166 L-70 -18 Z" fill="#f4f2ec" fill-opacity="0.06"></path>
    <path d="M204 44 L312 102 L312 219 L204 278 L96 219 L96 102 Z" fill="#0d0d0d" fill-opacity="0.45"></path>

    <rect width="1113" height="170" fill="url(#scrim)"></rect>

    <text class="name" x="1041" y="94" text-anchor="end">PEIXOTTO</text>
    <text class="tag" x="1045" y="135" text-anchor="end">ENGENHEIRO DE PRODUÇÃO · AI ENGINEER</text>

    <rect x="0" y="167" width="1113" height="3" fill="url(#rule)"></rect>
  </g>
</svg>